<?xml version="1.0" encoding="UTF-8" standalone="no"?>
<!DOCTYPE svg PUBLIC "-//W3C//DTD SVG 1.1//EN" "http://www.w3.org/Graphics/SVG/1.1/DTD/svg11.dtd">
<svg width="100%" height="100%" viewBox="0 0 50 50" version="1.1" xmlns="http://www.w3.org/2000/svg" xmlns:xlink="http://www.w3.org/1999/xlink" xml:space="preserve" xmlns:serif="http://www.serif.com/" style="fill-rule:evenodd;clip-rule:evenodd;stroke-linejoin:round;stroke-miterlimit:2;">
    <g transform="matrix(0.750627,0,0,0.750627,18.1373,23.1724)">
        <path d="M0,4.769C-3.143,3.311 -6.033,1.971 -9.099,0.549C-10.029,2.154 -11.062,3.934 -12.094,5.712C-12.507,6.425 -12.921,7.137 -13.337,7.849C-14.264,9.433 -15.312,9.911 -16.472,9.28C-17.672,8.627 -17.791,7.436 -16.82,5.754C-15.536,3.53 -14.25,1.307 -12.966,-0.918C-12.749,-1.293 -12.541,-1.674 -12.329,-2.052C-13.779,-3.594 -15.241,-5.07 -16.611,-6.627C-17.769,-7.942 -17.772,-9.101 -16.771,-9.931C-15.766,-10.764 -14.617,-10.538 -13.516,-9.232C-8.888,-3.745 -3.192,-0 3.963,1.184C14.73,2.964 23.742,-0.38 31.065,-8.411C31.458,-8.841 31.801,-9.319 32.214,-9.727C33.082,-10.585 34.295,-10.662 35.082,-9.869C35.906,-9.038 36.058,-8.037 35.269,-7.129C33.775,-5.413 32.202,-3.766 30.582,-2.002C32.06,0.549 33.607,3.173 35.098,5.831C35.417,6.4 35.83,7.188 35.66,7.693C35.435,8.362 34.736,9.224 34.134,9.319C33.463,9.424 32.365,8.966 31.985,8.398C30.535,6.226 29.299,3.911 27.98,1.65C27.739,1.236 27.492,0.824 27.335,0.559C24.317,1.955 21.384,3.311 18.24,4.764C18.654,7.205 19.107,9.863 19.554,12.522C19.809,14.038 19.309,14.98 18.122,15.245C16.832,15.533 15.934,14.868 15.63,13.306C15.123,10.701 14.663,8.087 14.196,5.542L4.038,5.542C3.592,7.976 3.139,10.536 2.649,13.089C2.318,14.814 1.51,15.498 0.183,15.255C-1.094,15.02 -1.582,14.028 -1.285,12.313C-0.841,9.744 -0.409,7.173 0,4.769" style="fill-rule:nonzero;"/>
    </g>
</svg>
