<?xml version="1.0" encoding="UTF-8" standalone="no"?>
<!DOCTYPE svg PUBLIC "-//W3C//DTD SVG 1.1//EN" "http://www.w3.org/Graphics/SVG/1.1/DTD/svg11.dtd">
<svg width="100%" height="100%" viewBox="0 0 1926 524" version="1.1" xmlns="http://www.w3.org/2000/svg" xmlns:xlink="http://www.w3.org/1999/xlink" xml:space="preserve" xmlns:serif="http://www.serif.com/" style="fill-rule:evenodd;clip-rule:evenodd;stroke-linejoin:round;stroke-miterlimit:2;">
    <g transform="matrix(1,0,0,1,-791.358,-1391.79)">
        <g transform="matrix(5.55556,0,0,5.55556,0,0)">
            <g transform="matrix(1,0,0,1,187.318,272.957)">
                <path d="M0,53.848L41.336,53.848L32.327,71.797L0,71.797C-12.435,71.797 -23.022,67.429 -31.764,58.685C-40.505,49.946 -44.874,39.359 -44.874,26.923C-44.874,14.492 -40.505,3.905 -31.764,-4.837C-23.022,-13.576 -12.435,-17.949 0,-17.949L41.336,-17.949L33.581,0.002L0,0.002C-7.482,0.002 -13.837,2.619 -19.072,7.854C-24.31,13.089 -26.925,19.448 -26.925,26.923C-26.925,34.406 -24.31,40.761 -19.072,45.995C-13.837,51.231 -7.482,53.848 0,53.848" style="fill:rgb(29,29,27);fill-rule:nonzero;"/>
            </g>
        </g>
        <g transform="matrix(5.55556,0,0,5.55556,0,0)">
            <g transform="matrix(1,0,0,1,230.537,250.522)">
                <path d="M0,94.232L44.873,0L89.744,94.232L69.551,94.232L44.873,42.629L20.192,94.232L0,94.232Z" style="fill:rgb(29,29,27);fill-rule:nonzero;"/>
            </g>
        </g>
        <g transform="matrix(5.55556,0,0,5.55556,0,0)">
            <g transform="matrix(1,0,0,1,353.665,326.803)">
                <path d="M0,-53.844L0,17.951L-17.949,17.951L-17.949,-53.844L-53.846,-53.844L-53.846,-71.795L32.364,-71.795L24.608,-53.844L0,-53.844Z" style="fill:rgb(29,29,27);fill-rule:nonzero;"/>
            </g>
        </g>
        <g transform="matrix(5.55556,0,0,5.55556,0,0)">
            <g transform="matrix(1,0,0,1,377.681,255.007)">
                <path d="M0,89.747L27.638,89.747C30.726,78.506 37.903,65.865 48.406,53L71.795,89.747L94.104,89.747L61.515,38.548C73.075,26.997 87.074,15.622 102.956,5.278C105.774,3.443 108.597,1.7 111.42,0L95.711,0C87.67,4.09 79.567,8.749 71.527,13.985C65.336,18.018 59.457,22.227 53.878,26.549L36.979,0L14.894,0.351L39.328,38.738C20.773,55.575 7.13,73.446 0,89.747" style="fill:rgb(29,29,27);fill-rule:nonzero;"/>
            </g>
        </g>
    </g>
</svg>
