<?xml version="1.0" encoding="UTF-8" standalone="no"?>
<!DOCTYPE svg PUBLIC "-//W3C//DTD SVG 1.1//EN" "http://www.w3.org/Graphics/SVG/1.1/DTD/svg11.dtd">
<svg width="100%" height="100%" viewBox="0 0 50 50" version="1.1" xmlns="http://www.w3.org/2000/svg" xmlns:xlink="http://www.w3.org/1999/xlink" xml:space="preserve" xmlns:serif="http://www.serif.com/" style="fill-rule:evenodd;clip-rule:evenodd;stroke-linejoin:round;stroke-miterlimit:2;">
    <g transform="matrix(0.442149,0,0,0.442149,30.237,5.58876)">
        <path d="M0,68.652C-7.359,68.652 -14.723,68.509 -22.078,68.695C-28.659,68.86 -33.903,62.635 -32.075,55.982C-30.244,49.319 -30.392,49.914 -32.541,43.478C-36.293,32.244 -40.034,21.005 -43.781,9.768C-44.362,8.024 -45.128,7.465 -46.938,7.462C-48.977,7.458 -51.016,7.472 -53.055,7.458C-55.377,7.44 -57.084,5.803 -57.078,3.625C-57.073,1.471 -55.411,-0.165 -53.131,-0.182C-49.402,-0.208 -45.675,-0.206 -41.947,-0.182C-39.98,-0.169 -38.726,0.766 -38.09,2.645C-36.979,5.932 -35.891,9.228 -34.793,12.521C-34.094,14.618 -33.436,15.1 -31.248,15.1C-11.271,15.101 8.706,15.1 28.684,15.104C29.255,15.104 29.842,15.083 30.396,15.194C32.717,15.663 33.942,17.953 33.147,20.384C31.781,24.561 30.372,28.723 28.982,32.891C27.068,38.631 25.161,44.372 23.241,50.108C22.43,52.535 21.274,53.351 18.715,53.351C5.524,53.352 -7.666,53.351 -20.857,53.351C-22.973,53.352 -23.631,53.867 -24.135,55.908C-24.334,56.712 -24.561,57.509 -24.729,58.32C-25.044,59.842 -24.222,60.895 -22.675,60.984C-22.326,61.005 -21.975,60.992 -21.624,60.992C-6.872,60.992 7.88,60.987 22.632,61.006C23.349,61.007 24.114,61.09 24.772,61.349C26.397,61.991 27.301,63.766 27.004,65.476C26.707,67.182 25.254,68.517 23.514,68.63C22.72,68.68 21.921,68.651 21.125,68.652C14.083,68.653 7.042,68.652 0,68.652" style="fill:rgb(30,28,26);fill-rule:nonzero;"/>
    </g>
    <g transform="matrix(0.00242856,-0.442142,-0.442142,-0.00242856,18.5446,37.6318)">
        <path d="M-7.621,-7.646C-11.846,-7.661 -15.289,-4.229 -15.296,-0.001C-15.301,4.215 -11.854,7.65 -7.621,7.647C-3.444,7.644 -0.028,4.233 -0.002,0.045C0.026,-4.176 -3.397,-7.632 -7.621,-7.646" style="fill:rgb(30,28,26);fill-rule:nonzero;"/>
    </g>
    <g transform="matrix(0.00159025,-0.442146,-0.442146,-0.00159025,38.8245,37.629)">
        <path d="M-7.627,-7.656C-11.853,-7.669 -15.298,-4.239 -15.301,-0.012C-15.305,4.207 -11.859,7.642 -7.627,7.636C-3.45,7.631 -0.032,4.223 -0.008,0.036C0.017,-4.188 -3.404,-7.643 -7.627,-7.656" style="fill:rgb(30,28,26);fill-rule:nonzero;"/>
    </g>
</svg>
