<?xml version="1.0" encoding="UTF-8" standalone="no"?>
<!DOCTYPE svg PUBLIC "-//W3C//DTD SVG 1.1//EN" "http://www.w3.org/Graphics/SVG/1.1/DTD/svg11.dtd">
<svg width="100%" height="100%" viewBox="0 0 50 50" version="1.1" xmlns="http://www.w3.org/2000/svg" xmlns:xlink="http://www.w3.org/1999/xlink" xml:space="preserve" xmlns:serif="http://www.serif.com/" style="fill-rule:evenodd;clip-rule:evenodd;stroke-linejoin:round;stroke-miterlimit:2;">
    <g transform="matrix(0.497313,0,0,0.497313,24.974,2.89534)">
        <path d="M0,77.889C-8.555,77.729 -17.081,77.328 -25.535,76.011C-28.59,75.535 -31.629,74.887 -34.621,74.106C-39.817,72.749 -41.835,66.884 -38.609,62.567C-35.878,58.91 -33.257,55.195 -31.122,51.149C-28.149,45.513 -26.368,39.615 -26.084,33.163C-25.619,22.598 -20.383,14.932 -10.932,10.229C-9.534,9.535 -8.709,8.907 -8.271,7.242C-7.063,2.64 -2.682,0 1.669,0.882C5.474,1.654 8.305,4.639 8.773,8.466C8.849,9.078 9.068,9.343 9.609,9.564C17.776,12.9 23.052,18.861 25.416,27.326C25.974,29.322 26.248,31.452 26.287,33.528C26.404,39.669 28.266,45.283 31.044,50.663C33.156,54.753 35.634,58.617 38.537,62.181C41.942,66.361 40.208,72.861 34.364,74.286C28.376,75.747 22.324,76.658 16.199,77.088C10.808,77.466 5.4,77.63 0,77.889" style="fill:rgb(30,28,26);fill-rule:nonzero;"/>
    </g>
    <g transform="matrix(0.497313,0,0,0.497313,19.6094,46.9655)">
        <path d="M0,-7.504L21.684,-7.504C21.105,-4.912 17.088,-0.817 11.782,-0.415C6.301,0 1.391,-3.579 0,-7.504" style="fill:rgb(30,28,26);fill-rule:nonzero;"/>
    </g>
</svg>
