<?xml version="1.0" encoding="UTF-8" standalone="no"?>
<!DOCTYPE svg PUBLIC "-//W3C//DTD SVG 1.1//EN" "http://www.w3.org/Graphics/SVG/1.1/DTD/svg11.dtd">
<svg width="100%" height="100%" viewBox="0 0 85 62" version="1.1" xmlns="http://www.w3.org/2000/svg" xmlns:xlink="http://www.w3.org/1999/xlink" xml:space="preserve" xmlns:serif="http://www.serif.com/" style="fill-rule:evenodd;clip-rule:evenodd;stroke-linecap:round;stroke-linejoin:round;stroke-miterlimit:10;">
    <g transform="matrix(1,0,0,1,-10687.3,-25217.5)">
        <g transform="matrix(2,0,0,2,10530,22601.7)">
            <g transform="matrix(1,0,0,1,109.631,1328.97)">
                <path d="M0,-16.074L-4.712,-16.074L-4.712,-18.057C-4.712,-19.309 -5.727,-20.324 -6.979,-20.324L-27.983,-20.324C-29.235,-20.324 -30.25,-19.309 -30.25,-18.057L-30.25,1.984C-30.25,3.236 -29.235,4.25 -27.983,4.25L8.373,4.25C9.625,4.25 10.64,3.236 10.64,1.984L10.64,-4.779C10.64,-5.758 10.012,-6.626 9.082,-6.932L5.558,-8.093L2.007,-14.86C1.616,-15.607 0.843,-16.074 0,-16.074Z" style="fill:white;fill-rule:nonzero;stroke:rgb(177,139,78);stroke-width:1.5px;"/>
            </g>
        </g>
        <g transform="matrix(2,0,0,2,10530,22601.7)">
            <g transform="matrix(0,1,1,0,115.081,1323.06)">
                <path d="M-10.162,-10.162L10.162,-10.162" style="fill:none;fill-rule:nonzero;stroke:rgb(177,139,78);stroke-width:1.5px;"/>
            </g>
        </g>
        <g transform="matrix(2,0,0,2,10530,22601.7)">
            <g transform="matrix(1,0,0,1,79.3813,1325.01)">
                <path d="M0,0L25.538,0" style="fill:none;fill-rule:nonzero;stroke:rgb(177,139,78);stroke-width:1.5px;"/>
            </g>
        </g>
        <g transform="matrix(2,0,0,2,10530,22601.7)">
            <g transform="matrix(-1,0,0,1,108.323,1320.88)">
                <path d="M-6.866,0L0,0" style="fill:none;fill-rule:nonzero;stroke:rgb(177,139,78);stroke-width:1.5px;"/>
            </g>
        </g>
        <g transform="matrix(2,0,0,2,10530,22601.7)">
            <g transform="matrix(0,-1,-1,0,86.5513,1330.06)">
                <path d="M-3.958,-3.957C-6.144,-3.957 -7.915,-2.185 -7.915,0.001C-7.915,2.187 -6.144,3.958 -3.958,3.958C-1.772,3.958 0,2.187 0,0.001C0,-2.185 -1.772,-3.957 -3.958,-3.957" style="fill:white;fill-rule:nonzero;"/>
            </g>
        </g>
        <g transform="matrix(2,0,0,2,10530,22601.7)">
            <g transform="matrix(0,-1,-1,0,86.5513,1330.06)">
                <circle cx="-3.957" cy="0" r="3.957" style="fill:none;stroke:rgb(177,139,78);stroke-width:1.5px;"/>
            </g>
        </g>
        <g transform="matrix(2,0,0,2,10530,22601.7)">
            <g transform="matrix(0,-1,-1,0,111.288,1330.06)">
                <path d="M-3.958,-3.957C-6.144,-3.957 -7.915,-2.185 -7.915,0.001C-7.915,2.187 -6.144,3.958 -3.958,3.958C-1.772,3.958 0,2.187 0,0.001C0,-2.185 -1.772,-3.957 -3.958,-3.957" style="fill:white;fill-rule:nonzero;"/>
            </g>
        </g>
        <g transform="matrix(2,0,0,2,10530,22601.7)">
            <g transform="matrix(0,-1,-1,0,111.288,1330.06)">
                <circle cx="-3.957" cy="0" r="3.957" style="fill:none;stroke:rgb(177,139,78);stroke-width:1.5px;"/>
            </g>
        </g>
    </g>
</svg>
