<?xml version="1.0" encoding="UTF-8" standalone="no"?>
<!DOCTYPE svg PUBLIC "-//W3C//DTD SVG 1.1//EN" "http://www.w3.org/Graphics/SVG/1.1/DTD/svg11.dtd">
<svg width="100%" height="100%" viewBox="0 0 70 94" version="1.1" xmlns="http://www.w3.org/2000/svg" xmlns:xlink="http://www.w3.org/1999/xlink" xml:space="preserve" xmlns:serif="http://www.serif.com/" style="fill-rule:evenodd;clip-rule:evenodd;stroke-linecap:round;stroke-linejoin:round;stroke-miterlimit:10;">
    <g transform="matrix(1,0,0,1,-2777.95,-36105.7)">
        <g transform="matrix(2,0,0,2,2632.5,33902.6)">
            <g transform="matrix(1,0,0,1,99.1963,1130.2)">
                <path d="M0,-11.358C0.009,-16.495 -4.103,-20.631 -9.208,-20.62C-14.257,-20.61 -18.365,-16.512 -18.386,-11.469C-18.406,-6.319 -14.327,-2.188 -9.213,-2.18C-4.121,-2.172 -0.009,-6.268 0,-11.358ZM-9.15,17.127C-9.967,16.332 -10.79,15.588 -11.548,14.783C-14.84,11.281 -17.834,7.544 -20.368,3.453C-22.229,0.446 -23.811,-2.693 -24.754,-6.12C-26.313,-11.789 -25.585,-17.055 -21.83,-21.702C-19.108,-25.069 -15.541,-27.013 -11.233,-27.578C-4.316,-28.485 2.406,-24.836 5.481,-18.553C7.059,-15.329 7.478,-11.928 6.872,-8.396C6.275,-4.91 4.919,-1.709 3.206,1.355C-0.004,7.096 -4.134,12.124 -8.762,16.764C-8.894,16.897 -9.035,17.02 -9.15,17.127Z" style="fill:none;fill-rule:nonzero;stroke:rgb(177,139,78);stroke-width:1.89px;"/>
            </g>
        </g>
    </g>
</svg>
