<?xml version="1.0" encoding="UTF-8" standalone="no"?>
<!DOCTYPE svg PUBLIC "-//W3C//DTD SVG 1.1//EN" "http://www.w3.org/Graphics/SVG/1.1/DTD/svg11.dtd">
<svg width="100%" height="100%" viewBox="0 0 66 59" version="1.1" xmlns="http://www.w3.org/2000/svg" xmlns:xlink="http://www.w3.org/1999/xlink" xml:space="preserve" xmlns:serif="http://www.serif.com/" style="fill-rule:evenodd;clip-rule:evenodd;stroke-linejoin:round;stroke-miterlimit:2;">
    <g transform="matrix(1,0,0,1,-8065.5,-25574.1)">
        <g transform="matrix(2,0,0,2,7897.5,22601.7)">
            <g transform="matrix(1,0,0,1,102.145,1491.21)">
                <path d="M0,18.603C0.002,17.64 -0.791,16.838 -1.752,16.832C-2.71,16.825 -3.518,17.624 -3.523,18.584C-3.529,19.56 -2.755,20.337 -1.771,20.341C-0.786,20.345 -0.002,19.577 0,18.603M0.003,9.073C0.003,7.856 0.007,6.639 0.002,5.422C-0.002,4.28 -0.647,3.637 -1.777,3.64C-2.869,3.642 -3.523,4.291 -3.525,5.395C-3.529,7.792 -3.529,10.189 -3.525,12.586C-3.523,13.727 -2.878,14.367 -1.747,14.365C-0.63,14.363 -0.001,13.715 0.003,12.557C0.006,11.396 0.003,10.234 0.003,9.073M-1.817,24.121C-6.278,24.121 -10.739,24.127 -15.2,24.117C-17.02,24.113 -18.267,22.793 -18.135,21.058C-18.101,20.606 -17.934,20.204 -17.709,19.816C-15.931,16.738 -14.156,13.658 -12.379,10.58C-9.67,5.89 -6.971,1.196 -4.247,-3.485C-3.051,-5.538 -0.472,-5.54 0.723,-3.485C3.798,1.801 6.847,7.102 9.907,12.397C11.216,14.662 12.527,16.924 13.83,19.192C14.068,19.607 14.332,20.02 14.482,20.467C15.076,22.241 13.785,24.082 11.896,24.106C8.948,24.143 5.998,24.12 3.049,24.121C1.427,24.122 -0.195,24.121 -1.817,24.121" style="fill:rgb(227,6,19);fill-rule:nonzero;"/>
            </g>
        </g>
    </g>
</svg>
