<?xml version="1.0" encoding="UTF-8" standalone="no"?>
<!DOCTYPE svg PUBLIC "-//W3C//DTD SVG 1.1//EN" "http://www.w3.org/Graphics/SVG/1.1/DTD/svg11.dtd">
<svg width="100%" height="100%" viewBox="0 0 50 50" version="1.1" xmlns="http://www.w3.org/2000/svg" xmlns:xlink="http://www.w3.org/1999/xlink" xml:space="preserve" xmlns:serif="http://www.serif.com/" style="fill-rule:evenodd;clip-rule:evenodd;stroke-linejoin:round;stroke-miterlimit:2;">
    <g transform="matrix(0.409315,0,0,0.409315,26.4721,13.5798)">
        <path d="M0,57.843L41.127,40.811L41.127,59.697L6.687,73.373C-4.071,78.006 -14.859,78.171 -25.681,73.863C-36.5,69.559 -44.224,62.026 -48.856,51.267C-53.489,40.51 -53.654,29.723 -49.348,18.902C-45.04,8.084 -37.51,0.356 -26.751,-4.278L11.321,-20.328L11.321,-1.907L-20.062,11.255C-26.535,14.042 -31.06,18.675 -33.638,25.155C-36.22,31.635 -36.112,38.111 -33.327,44.579C-30.54,51.053 -25.909,55.577 -19.427,58.155C-12.947,60.735 -6.473,60.631 0,57.843" style="fill:rgb(30,28,26);fill-rule:nonzero;"/>
    </g>
    <g transform="matrix(0.409315,0,0,0.409315,42.423,12.8441)">
        <path d="M0,-19.157L-0.411,-19.057C-2.039,-18.232 -3.638,-17.303 -5.169,-16.307C-6.08,-15.711 -6.98,-15.084 -7.849,-14.435L-10.858,-19.164L-17.261,-19.065L-12.07,-10.911C-15.449,-7.742 -17.952,-4.421 -19.334,-1.265L-19.888,0.007L-12.468,0.007L-12.283,-0.659C-11.802,-2.41 -10.749,-4.392 -9.221,-6.434L-5.123,0.007L1.343,0.007L-5.449,-10.667C-3.301,-12.74 -0.833,-14.69 1.893,-16.466C2.432,-16.817 2.971,-17.147 3.506,-17.473L6.296,-19.157L0,-19.157Z" style="fill:rgb(30,28,26);fill-rule:nonzero;"/>
    </g>
</svg>
