<?xml version="1.0" encoding="UTF-8" standalone="no"?>
<!DOCTYPE svg PUBLIC "-//W3C//DTD SVG 1.1//EN" "http://www.w3.org/Graphics/SVG/1.1/DTD/svg11.dtd">
<svg width="100%" height="100%" viewBox="0 0 253 253" version="1.1" xmlns="http://www.w3.org/2000/svg" xmlns:xlink="http://www.w3.org/1999/xlink" xml:space="preserve" xmlns:serif="http://www.serif.com/" style="fill-rule:evenodd;clip-rule:evenodd;stroke-miterlimit:10;">
    <g transform="matrix(1,0,0,1,-13296.9,-986.906)">
        <g transform="matrix(2,0,0,2,13162.5,0)">
            <g transform="matrix(1,0,0,1,130.255,503.503)">
                <path d="M0,106C-29.271,106 -53,82.271 -53,53C-53,23.729 -29.271,0 0,0C29.271,0 53,23.729 53,53C53,82.271 29.271,106 0,106" style="fill:rgb(255,216,57);fill-rule:nonzero;"/>
            </g>
        </g>
        <g transform="matrix(2,0,0,2,13162.5,0)">
            <g transform="matrix(1,0,0,1,130.255,503.503)">
                <path d="M0,106C-29.271,106 -53,82.271 -53,53C-53,23.729 -29.271,0 0,0C29.271,0 53,23.729 53,53C53,82.271 29.271,106 0,106Z" style="fill:none;fill-rule:nonzero;stroke:black;stroke-width:2px;"/>
            </g>
        </g>
        <g transform="matrix(2,0,0,2,13162.5,0)">
            <g transform="matrix(1,0,0,1,131.795,550.808)">
                <path d="M0,11.443C-1.266,12.965 -2.133,14.535 -2.39,16.356C-2.586,17.75 -2.625,19.167 -2.704,20.576C-2.766,21.693 -3.33,22.163 -4.424,21.972C-5.395,21.803 -6.195,21.349 -6.799,20.571C-7.079,20.212 -7.329,19.83 -7.647,19.381C-8.408,21.717 -8.676,23.971 -7.749,26.197C-6.716,28.674 -4.872,30.257 -2.151,30.519C1.469,30.866 4.678,28.179 5.155,24.493C5.499,21.849 4.754,19.446 3.36,17.229C2.19,15.37 0.728,13.688 0,11.443M3.098,-18.02C0.536,-15.738 -1.448,-13.134 -3.03,-10.207C-4.992,-6.578 -5.698,-2.64 -5.904,1.417C-5.99,3.107 -6.002,4.801 -6.044,6.493C-6.071,7.61 -6.476,8.026 -7.6,7.91C-8.38,7.83 -9.184,7.71 -9.91,7.432C-12.465,6.454 -13.928,4.397 -15.012,2.016C-15.32,1.341 -15.557,0.634 -15.907,-0.267C-16.536,0.73 -17.147,1.555 -17.607,2.458C-18.976,5.146 -19.402,8.056 -19.56,11.034C-19.904,17.547 -17.552,22.842 -12.434,26.87C-11.376,27.702 -10.157,28.327 -9.012,29.048C-8.968,28.989 -8.925,28.93 -8.882,28.871C-8.926,28.781 -8.963,28.688 -9.015,28.603C-11.028,25.324 -10.976,21.903 -9.657,18.424C-9.297,17.476 -8.696,16.653 -7.825,16.076C-7.281,15.715 -6.687,15.744 -6.315,16.196C-6.135,16.415 -6.046,16.723 -5.968,17.005C-5.768,17.73 -5.567,18.449 -4.992,19.191C-4.897,18.178 -4.861,17.344 -4.737,16.524C-4.231,13.178 -2.636,10.439 -0.004,8.328C0.291,8.091 0.84,8.01 1.225,8.087C1.726,8.188 1.907,8.683 1.934,9.194C1.949,9.493 1.971,9.793 2.02,10.088C2.258,11.524 3.049,12.697 3.822,13.885C4.651,15.158 5.573,16.394 6.213,17.759C7.7,20.929 8.071,24.202 6.559,27.505C6.343,27.976 6.068,28.42 5.737,29.03C6.199,28.809 6.512,28.682 6.803,28.516C13.411,24.75 16.723,19.109 16.488,11.457C16.343,6.726 14.873,2.412 12.268,-1.506C10.738,-3.806 9.084,-6.022 7.48,-8.273C5.525,-11.016 3.874,-13.899 3.271,-17.274C3.231,-17.496 3.169,-17.715 3.098,-18.02M-8.404,5.531C-8.261,3.351 -8.135,1.257 -7.984,-0.834C-7.58,-6.43 -5.561,-11.391 -2.101,-15.788C-0.583,-17.717 1.129,-19.447 3.08,-20.939C3.531,-21.284 3.988,-21.611 4.601,-21.305C5.195,-21.009 5.275,-20.479 5.28,-19.894C5.308,-16.765 6.409,-13.972 8.114,-11.424C9.852,-8.825 11.736,-6.326 13.521,-3.758C17.061,1.332 18.982,6.952 18.778,13.187C18.596,18.757 16.418,23.49 12.354,27.305C8.25,31.158 3.324,33.054 -2.28,32.793C-9.398,32.461 -14.944,29.2 -18.797,23.18C-21.097,19.588 -22.02,15.614 -21.855,11.366C-21.73,8.131 -21.276,4.969 -19.927,1.989C-19.057,0.066 -17.887,-1.637 -16.14,-2.865C-15.784,-3.115 -15.274,-3.291 -14.85,-3.265C-14.194,-3.224 -14.012,-2.637 -13.902,-2.058C-13.584,-0.382 -13.025,1.211 -12.111,2.658C-11.23,4.052 -10.102,5.149 -8.404,5.531" style="fill-rule:nonzero;"/>
            </g>
        </g>
        <g transform="matrix(2,0,0,2,13162.5,0)">
            <g transform="matrix(1,0,0,1,134.894,579.856)">
                <path d="M0,-47.068C0.071,-46.763 0.133,-46.545 0.172,-46.322C0.775,-42.947 2.427,-40.064 4.382,-37.321C5.986,-35.07 7.64,-32.854 9.169,-30.554C11.774,-26.636 13.245,-22.322 13.39,-17.591C13.625,-9.939 10.313,-4.298 3.705,-0.532C3.414,-0.366 3.101,-0.239 2.639,-0.018C2.97,-0.628 3.245,-1.072 3.461,-1.544C4.973,-4.846 4.602,-8.119 3.115,-11.289C2.475,-12.654 1.553,-13.89 0.724,-15.163C-0.049,-16.351 -0.84,-17.524 -1.079,-18.961C-1.127,-19.255 -1.149,-19.555 -1.165,-19.854C-1.191,-20.365 -1.373,-20.86 -1.873,-20.961C-2.258,-21.038 -2.807,-20.957 -3.102,-20.72C-5.734,-18.609 -7.329,-15.87 -7.835,-12.524C-7.959,-11.704 -7.996,-10.87 -8.09,-9.857C-8.665,-10.599 -8.866,-11.318 -9.066,-12.044C-9.145,-12.325 -9.233,-12.633 -9.413,-12.852C-9.785,-13.304 -10.379,-13.333 -10.923,-12.972C-11.794,-12.395 -12.395,-11.572 -12.755,-10.624C-14.074,-7.145 -14.126,-3.724 -12.113,-0.445C-12.062,-0.36 -12.024,-0.267 -11.98,-0.177C-12.023,-0.118 -12.066,-0.059 -12.11,0C-13.255,-0.721 -14.475,-1.346 -15.532,-2.178C-20.65,-6.206 -23.002,-11.501 -22.658,-18.014C-22.5,-20.992 -22.074,-23.902 -20.706,-26.59C-20.246,-27.493 -19.634,-28.318 -19.005,-29.316C-18.655,-28.414 -18.418,-27.707 -18.11,-27.032C-17.026,-24.651 -15.563,-22.594 -13.008,-21.616C-12.282,-21.338 -11.478,-21.218 -10.698,-21.138C-9.574,-21.022 -9.169,-21.438 -9.142,-22.555C-9.101,-24.247 -9.088,-25.941 -9.002,-27.631C-8.796,-31.689 -8.09,-35.627 -6.128,-39.256C-4.546,-42.182 -2.563,-44.786 0,-47.068" style="fill:white;fill-rule:nonzero;"/>
            </g>
        </g>
        <g transform="matrix(2,0,0,2,13162.5,0)">
            <g transform="matrix(1,0,0,1,131.795,581.674)">
                <path d="M0,-19.423C0.728,-17.178 2.19,-15.496 3.36,-13.637C4.754,-11.42 5.499,-9.017 5.155,-6.373C4.678,-2.687 1.469,0 -2.151,-0.347C-4.872,-0.609 -6.716,-2.192 -7.749,-4.669C-8.676,-6.895 -8.408,-9.149 -7.647,-11.485C-7.329,-11.036 -7.079,-10.654 -6.799,-10.295C-6.195,-9.517 -5.395,-9.063 -4.424,-8.894C-3.33,-8.703 -2.766,-9.173 -2.704,-10.29C-2.625,-11.699 -2.586,-13.116 -2.39,-14.51C-2.133,-16.331 -1.266,-17.901 0,-19.423" style="fill:white;fill-rule:nonzero;"/>
            </g>
        </g>
    </g>
</svg>
