<?xml version="1.0" encoding="UTF-8" standalone="no"?>
<!DOCTYPE svg PUBLIC "-//W3C//DTD SVG 1.1//EN" "http://www.w3.org/Graphics/SVG/1.1/DTD/svg11.dtd">
<svg width="100%" height="100%" viewBox="0 0 50 50" version="1.1" xmlns="http://www.w3.org/2000/svg" xmlns:xlink="http://www.w3.org/1999/xlink" xml:space="preserve" xmlns:serif="http://www.serif.com/" style="fill-rule:evenodd;clip-rule:evenodd;stroke-linejoin:round;stroke-miterlimit:2;">
    <g transform="matrix(0.624997,0,0,0.624997,25.0541,16.835)">
        <path d="M0,26.382C7.143,26.529 13.258,20.331 13.23,13.159C13.201,5.729 7.182,-0.168 -0.086,-0.188C-7.381,-0.208 -13.38,5.806 -13.393,13.1C-13.406,20.373 -7.318,26.57 0,26.382M-0.084,-5.949C1.187,-5.889 2.47,-5.906 3.729,-5.752C5.9,-5.487 8.051,-5.081 10.121,-4.343C11.331,-3.911 12.571,-3.55 13.741,-3.03C15.055,-2.446 16.357,-1.8 17.571,-1.033C19.355,0.096 21.109,1.288 22.78,2.576C25.218,4.455 27.375,6.645 29.351,9.007C30.051,9.845 30.731,10.702 31.387,11.576C32.078,12.5 32.09,13.712 31.417,14.635C29.308,17.529 26.883,20.135 24.197,22.502C21.592,24.798 18.758,26.752 15.663,28.333C13.777,29.297 11.822,30.067 9.805,30.708C5.706,32.011 1.503,32.438 -2.755,32.11C-4.696,31.961 -6.624,31.51 -8.529,31.073C-9.949,30.748 -11.347,30.288 -12.711,29.775C-13.859,29.342 -14.962,28.778 -16.056,28.215C-18.128,27.149 -20.089,25.901 -21.939,24.482C-25.249,21.943 -28.185,19.027 -30.729,15.721C-31.145,15.182 -31.577,14.633 -31.865,14.024C-32.33,13.044 -32.012,12.113 -31.388,11.306C-29.07,8.312 -26.534,5.523 -23.609,3.104C-21.664,1.495 -19.624,0.031 -17.421,-1.213C-15.501,-2.297 -13.544,-3.289 -11.438,-3.95C-9.811,-4.462 -8.187,-5.053 -6.515,-5.348C-4.401,-5.722 -2.24,-5.832 -0.1,-6.056C-0.095,-6.02 -0.089,-5.985 -0.084,-5.949" style="fill-rule:nonzero;"/>
    </g>
    <g transform="matrix(-0.624995,-0.00169846,-0.00169846,0.624995,25.0026,30.1038)">
        <path d="M0.028,-16.212C-4.523,-16.155 -8.11,-12.669 -8.086,-8.116C-8.063,-3.494 -4.575,-0.012 0.028,-0.021C4.597,-0.029 8.079,-3.468 8.11,-8.084C8.14,-12.661 4.505,-16.149 0.028,-16.212" style="fill-rule:nonzero;"/>
    </g>
</svg>
