<?xml version="1.0" encoding="UTF-8" standalone="no"?>
<!DOCTYPE svg PUBLIC "-//W3C//DTD SVG 1.1//EN" "http://www.w3.org/Graphics/SVG/1.1/DTD/svg11.dtd">
<svg width="100%" height="100%" viewBox="0 0 117 108" version="1.1" xmlns="http://www.w3.org/2000/svg" xmlns:xlink="http://www.w3.org/1999/xlink" xml:space="preserve" xmlns:serif="http://www.serif.com/" style="fill-rule:evenodd;clip-rule:evenodd;stroke-linecap:round;stroke-linejoin:round;stroke-miterlimit:10;">
    <g transform="matrix(1,0,0,1,-6278.32,-23603)">
        <g transform="matrix(2,0,0,2,5265,22601.7)">
            <g transform="matrix(-1,0,0,1,1071.56,-1463.36)">
                <rect x="507.661" y="1981.61" width="56.235" height="35.147" style="fill:white;stroke:black;stroke-width:2px;"/>
            </g>
        </g>
        <g transform="matrix(2,0,0,2,5265,22601.7)">
            <g transform="matrix(-1,0,0,1,507.66,501.649)">
                <path d="M-56.235,16.598L0,16.598L-8.787,0L-47.448,0L-56.235,16.598Z" style="fill:white;fill-rule:nonzero;stroke:black;stroke-width:2px;"/>
            </g>
        </g>
        <g transform="matrix(2,0,0,2,5265,22601.7)">
            <g transform="matrix(1,0,0,1,543.979,501.649)">
                <path d="M0,32.805L-8.201,26.687L-16.402,32.805L-16.402,0L0,0L0,32.805Z" style="fill:white;fill-rule:nonzero;stroke:black;stroke-width:2px;"/>
            </g>
        </g>
        <g transform="matrix(2,0,0,2,5265,22601.7)">
            <g transform="matrix(-1,0,0,1,1033.15,-1444.22)">
                <rect x="512.672" y="1985.71" width="7.81" height="7.811" style="fill:white;stroke:black;stroke-width:2px;"/>
            </g>
        </g>
        <g transform="matrix(2,0,0,2,5265,22601.7)">
            <g transform="matrix(1,0,0,1,524.322,544.039)">
                <path d="M0,0L11.456,0" style="fill:none;fill-rule:nonzero;stroke:black;stroke-width:2px;"/>
            </g>
        </g>
        <g transform="matrix(2,0,0,2,5265,22601.7)">
            <g transform="matrix(1,0,0,1,524.322,547.927)">
                <path d="M0,0L5.728,0" style="fill:none;fill-rule:nonzero;stroke:black;stroke-width:2px;"/>
            </g>
        </g>
    </g>
</svg>
