<?xml version="1.0" encoding="UTF-8" standalone="no"?>
<!DOCTYPE svg PUBLIC "-//W3C//DTD SVG 1.1//EN" "http://www.w3.org/Graphics/SVG/1.1/DTD/svg11.dtd">
<svg width="100%" height="100%" viewBox="0 0 121 111" version="1.1" xmlns="http://www.w3.org/2000/svg" xmlns:xlink="http://www.w3.org/1999/xlink" xml:space="preserve" xmlns:serif="http://www.serif.com/" style="fill-rule:evenodd;clip-rule:evenodd;stroke-linecap:round;stroke-linejoin:round;stroke-miterlimit:10;">
    <g transform="matrix(1,0,0,1,-5831.54,-23603)">
        <g transform="matrix(2,0,0,2,5265,22601.7)">
            <g transform="matrix(1,0,0,1,291.014,542.539)">
                <path d="M0,-28.722L42.482,-28.722C45.975,-28.722 48.806,-25.891 48.806,-22.399L48.806,5.986C48.806,9.478 45.975,12.309 42.482,12.309L-0.422,12.309C-3.914,12.309 -6.745,9.478 -6.745,5.986L-6.745,-26.15C-6.745,-30.286 -3.763,-33.822 0.315,-34.52L37.415,-40.867C38.374,-41.031 39.251,-40.291 39.251,-39.319L39.251,-28.722" style="fill:white;fill-rule:nonzero;stroke:black;stroke-width:2px;"/>
            </g>
        </g>
        <g transform="matrix(2,0,0,2,5265,22601.7)">
            <g transform="matrix(1,0,0,1,322.24,528.681)">
                <path d="M0,11.991L18.611,11.991C19.438,11.991 20.109,11.32 20.109,10.492L20.109,1.499C20.109,0.672 19.438,0 18.611,0L0,0C-3.311,0 -5.995,2.684 -5.995,5.996C-5.995,9.306 -3.311,11.991 0,11.991Z" style="fill:white;fill-rule:nonzero;stroke:black;stroke-width:2px;"/>
            </g>
        </g>
    </g>
</svg>
