<?xml version="1.0" encoding="UTF-8" standalone="no"?>
<!DOCTYPE svg PUBLIC "-//W3C//DTD SVG 1.1//EN" "http://www.w3.org/Graphics/SVG/1.1/DTD/svg11.dtd">
<svg width="100%" height="100%" viewBox="0 0 78 78" version="1.1" xmlns="http://www.w3.org/2000/svg" xmlns:xlink="http://www.w3.org/1999/xlink" xml:space="preserve" xmlns:serif="http://www.serif.com/" style="fill-rule:evenodd;clip-rule:evenodd;stroke-linejoin:round;stroke-miterlimit:2;">
    <g transform="matrix(1,0,0,1,-7265,-13053.6)">
        <g transform="matrix(2,0,0,2,5265,11300.9)">
            <g transform="matrix(1,0,0,1,1029.5,909.487)">
                <path d="M0,-28.196C1.371,-26.805 2.677,-25.482 4.039,-24.102C4.809,-24.885 5.523,-25.6 6.222,-26.33C6.632,-26.759 6.55,-27.203 6.163,-27.597C5.286,-28.488 4.409,-29.381 3.509,-30.248C2.976,-30.762 2.619,-30.742 2.068,-30.217C1.393,-29.573 0.733,-28.914 0,-28.196M2.192,-22.26C0.807,-23.662 -0.484,-24.967 -1.783,-26.281C-1.934,-26.153 -2.045,-26.069 -2.143,-25.972C-4.979,-23.151 -7.817,-20.334 -10.645,-17.506C-13.727,-14.425 -16.8,-11.334 -19.871,-8.243C-21.091,-7.015 -22.367,-5.833 -23.495,-4.525C-25.243,-2.498 -26.217,-0.056 -26.91,2.502C-26.933,2.585 -26.89,2.685 -26.865,2.86C-26.257,2.673 -25.692,2.504 -25.131,2.327C-22.959,1.645 -20.951,0.635 -19.269,-0.905C-17.7,-2.342 -16.221,-3.878 -14.713,-5.381C-13.332,-6.757 -11.973,-8.153 -10.59,-9.527C-9.165,-10.942 -7.715,-12.332 -6.294,-13.751C-4.943,-15.101 -3.625,-16.482 -2.277,-17.834C-0.803,-19.312 0.688,-20.772 2.192,-22.26M-26.75,5.383C-28.502,5.363 -29.847,3.698 -29.415,2.067C-28.72,-0.561 -27.839,-3.143 -26.119,-5.287C-24.829,-6.895 -23.363,-8.369 -21.907,-9.835C-16.576,-15.2 -11.218,-20.536 -5.868,-25.882C-3.813,-27.936 -1.763,-29.995 0.305,-32.038C1.87,-33.585 4.031,-33.487 5.525,-31.863C6.238,-31.088 6.989,-30.343 7.766,-29.631C9.354,-28.172 9.457,-25.977 7.936,-24.45C2.794,-19.291 -2.361,-14.145 -7.51,-8.992C-10.463,-6.036 -13.425,-3.087 -16.361,-0.113C-18.751,2.307 -21.575,3.971 -24.845,4.889C-25.381,5.039 -25.911,5.207 -26.446,5.357C-26.56,5.389 -26.684,5.378 -26.75,5.383" style="fill-rule:nonzero;"/>
            </g>
        </g>
    </g>
</svg>
