<?xml version="1.0" encoding="UTF-8" standalone="no"?>
<!DOCTYPE svg PUBLIC "-//W3C//DTD SVG 1.1//EN" "http://www.w3.org/Graphics/SVG/1.1/DTD/svg11.dtd">
<svg width="100%" height="100%" viewBox="0 0 99 99" version="1.1" xmlns="http://www.w3.org/2000/svg" xmlns:xlink="http://www.w3.org/1999/xlink" xml:space="preserve" xmlns:serif="http://www.serif.com/" style="fill-rule:evenodd;clip-rule:evenodd;stroke-miterlimit:10;">
    <g transform="matrix(1,0,0,1,-3682.31,-15719.8)">
        <g transform="matrix(2,0,0,2,2632.5,11300.9)">
            <g transform="matrix(0,-1,-1,0,549.444,2217.68)">
                <path d="M-16.333,-16.333C-25.354,-16.333 -32.666,-9.021 -32.666,0C-32.666,9.021 -25.354,16.333 -16.333,16.333C-7.312,16.333 0,9.021 0,0C0,-9.021 -7.312,-16.333 -16.333,-16.333" style="fill:rgb(240,233,225);fill-rule:nonzero;"/>
            </g>
        </g>
        <g transform="matrix(2,0,0,2,2632.5,11300.9)">
            <g transform="matrix(0,-1,-1,0,549.444,2217.68)">
                <circle cx="-16.333" cy="0" r="16.333" style="fill:none;stroke:black;stroke-width:1.63px;"/>
            </g>
        </g>
        <g transform="matrix(2,0,0,2,2632.5,11300.9)">
            <g transform="matrix(1.00369,0,0,1,-2.00301,0)">
                <text x="542.89px" y="2244.87px" style="font-family:'D-DIN-Bold', 'D-DIN', sans-serif;font-weight:700;font-size:30.492px;">?</text>
            </g>
        </g>
    </g>
</svg>
