<?xml version="1.0" encoding="UTF-8" standalone="no"?>
<!DOCTYPE svg PUBLIC "-//W3C//DTD SVG 1.1//EN" "http://www.w3.org/Graphics/SVG/1.1/DTD/svg11.dtd">
<svg width="100%" height="100%" viewBox="0 0 50 50" version="1.1" xmlns="http://www.w3.org/2000/svg" xmlns:xlink="http://www.w3.org/1999/xlink" xml:space="preserve" xmlns:serif="http://www.serif.com/" style="fill-rule:evenodd;clip-rule:evenodd;stroke-linejoin:round;stroke-miterlimit:2;">
    <g transform="matrix(0.461787,0,0,0.461787,15.3038,46.4815)">
        <path d="M0,-43.174L-20.961,-43.174C-21.708,-43.174 -22.313,-42.569 -22.313,-41.821L-22.313,-1.353C-22.313,-0.606 -21.708,0 -20.961,0L0,0C0.747,0 1.354,-0.606 1.354,-1.353L1.354,-41.821C1.354,-42.569 0.747,-43.174 0,-43.174" style="fill:rgb(30,28,26);fill-rule:nonzero;"/>
    </g>
    <g transform="matrix(0.461787,0,0,0.461787,44.3752,46.4815)">
        <path d="M0,-21.587L-20.962,-21.587C-21.709,-21.587 -22.314,-20.982 -22.314,-20.234L-22.314,-1.353C-22.314,-0.606 -21.709,0 -20.962,0L0,0C0.747,0 1.353,-0.606 1.353,-1.353L1.353,-20.234C1.353,-20.982 0.747,-21.587 0,-21.587" style="fill:rgb(30,28,26);fill-rule:nonzero;"/>
    </g>
    <g transform="matrix(0.461787,0,0,0.461787,30.2014,46.4815)">
        <path d="M0,-61.174L-20.961,-61.174C-21.708,-61.174 -22.313,-60.569 -22.313,-59.821L-22.313,-1.353C-22.313,-0.606 -21.708,0 -20.961,0L0,0C0.747,0 1.353,-0.606 1.353,-1.353L1.353,-59.821C1.353,-60.569 0.747,-61.174 0,-61.174" style="fill:rgb(30,28,26);fill-rule:nonzero;"/>
    </g>
    <g transform="matrix(0.461787,0,0,0.461787,30.8688,15.2169)">
        <path d="M0,-25.363L-0.545,-25.231C-2.699,-24.138 -4.815,-22.908 -6.844,-21.59C-8.05,-20.801 -9.242,-19.97 -10.392,-19.111L-14.377,-25.373L-22.854,-25.241L-15.981,-14.446C-20.455,-10.25 -23.769,-5.852 -25.599,-1.675L-26.331,0.01L-16.508,0.01L-16.264,-0.872C-15.625,-3.19 -14.231,-5.814 -12.208,-8.518L-6.782,0.01L1.778,0.01L-7.214,-14.122C-4.37,-16.868 -1.104,-19.449 2.506,-21.8C3.22,-22.265 3.933,-22.702 4.642,-23.134L8.336,-25.363L0,-25.363Z" style="fill:rgb(30,28,26);fill-rule:nonzero;"/>
    </g>
</svg>
