<?xml version="1.0" encoding="UTF-8" standalone="no"?>
<!DOCTYPE svg PUBLIC "-//W3C//DTD SVG 1.1//EN" "http://www.w3.org/Graphics/SVG/1.1/DTD/svg11.dtd">
<svg width="100%" height="100%" viewBox="0 0 75 87" version="1.1" xmlns="http://www.w3.org/2000/svg" xmlns:xlink="http://www.w3.org/1999/xlink" xml:space="preserve" xmlns:serif="http://www.serif.com/" style="fill-rule:evenodd;clip-rule:evenodd;stroke-linejoin:round;stroke-miterlimit:2;">
    <g transform="matrix(1,0,0,1,-4715.34,-12630.8)">
        <g transform="matrix(2,0,0,2,2632.5,11300.9)">
            <g transform="matrix(1,0,0,1,1056.01,704.691)">
                <path d="M0,-36.202L8.231,-36.202C8.427,-37.158 8.038,-37.451 7.224,-37.442C5.143,-37.42 3.061,-37.42 0.979,-37.442C0.153,-37.451 -0.216,-37.141 0,-36.202M4.055,-29.331C9.083,-29.331 14.112,-29.368 19.14,-29.304C20.344,-29.289 20.522,-29.8 20.376,-30.773C20.129,-32.409 18.854,-33.577 17.057,-33.582C8.404,-33.61 -0.249,-33.61 -8.901,-33.581C-10.63,-33.575 -11.855,-32.463 -12.162,-30.86C-12.358,-29.832 -12.182,-29.285 -10.895,-29.302C-5.912,-29.371 -0.929,-29.33 4.055,-29.331M-9.765,-26.973C-9.765,-26.582 -9.795,-26.267 -9.76,-25.96C-8.774,-17.403 -7.778,-8.847 -6.797,-0.288C-6.68,0.734 -6.235,1.217 -5.13,1.211C0.995,1.177 7.121,1.173 13.246,1.215C14.403,1.223 14.878,0.765 15.002,-0.336C15.796,-7.364 16.618,-14.389 17.426,-21.416C17.637,-23.243 17.831,-25.073 18.041,-26.973L-9.765,-26.973ZM-2.573,-35.865C-2.14,-39.171 -1.48,-39.741 1.749,-39.748C3.381,-39.751 5.014,-39.749 6.646,-39.747C9.642,-39.745 10.431,-39.037 10.726,-35.875C12.484,-35.875 14.273,-35.887 16.062,-35.869C16.876,-35.861 17.715,-35.91 18.498,-35.733C21.372,-35.085 23.295,-32.052 22.598,-29.173C22.436,-28.505 21.879,-27.7 21.286,-27.426C20.441,-27.035 20.334,-26.462 20.251,-25.743C19.304,-17.46 18.357,-9.176 17.406,-0.894C17.339,-0.309 17.281,0.283 17.141,0.852C16.746,2.453 15.591,3.49 13.943,3.501C7.414,3.543 0.884,3.549 -5.646,3.506C-7.579,3.494 -8.786,2.309 -9.031,0.279C-9.861,-6.603 -10.646,-13.491 -11.447,-20.376C-11.62,-21.861 -11.813,-23.345 -11.961,-24.832C-12.076,-25.986 -12.137,-26.951 -13.447,-27.681C-14.983,-28.538 -14.648,-30.307 -14.314,-31.766C-13.769,-34.149 -11.636,-35.808 -9.179,-35.856C-6.969,-35.899 -4.758,-35.865 -2.573,-35.865" style="fill:rgb(160,160,160);fill-rule:nonzero;"/>
            </g>
        </g>
        <g transform="matrix(2,0,0,2,2632.5,11300.9)">
            <g transform="matrix(1,0,0,1,1054.71,693.808)">
                <path d="M0,-3.985C0,-6.253 -0.005,-8.521 0.003,-10.788C0.005,-11.614 -0.069,-12.428 -1.137,-12.433C-2.202,-12.437 -2.29,-11.633 -2.289,-10.802C-2.282,-6.266 -2.283,-1.73 -2.287,2.805C-2.288,3.629 -2.219,4.448 -1.15,4.452C-0.088,4.456 0.005,3.648 0.002,2.818C-0.005,0.551 0,-1.717 0,-3.985M13.1,-3.849C13.1,-6.162 13.098,-8.476 13.102,-10.789C13.103,-11.611 13.026,-12.432 11.956,-12.432C10.902,-12.433 10.793,-11.641 10.795,-10.802C10.803,-6.266 10.803,-1.73 10.798,2.806C10.797,3.635 10.883,4.444 11.941,4.452C13.004,4.459 13.104,3.645 13.104,2.819C13.103,0.596 13.104,-1.626 13.1,-3.849M6.458,-3.915C6.458,-6.222 6.452,-8.528 6.461,-10.835C6.465,-11.682 6.307,-12.444 5.269,-12.437C4.318,-12.432 4.112,-11.713 4.112,-10.921C4.107,-6.308 4.105,-1.695 4.109,2.918C4.11,3.703 4.308,4.44 5.25,4.457C6.274,4.475 6.465,3.726 6.461,2.869C6.451,0.608 6.458,-1.654 6.458,-3.915M5.561,9.951C8.283,9.951 11.005,9.944 13.727,9.955C14.536,9.958 15.231,9.792 15.233,8.82C15.235,7.86 14.558,7.662 13.74,7.663C8.296,7.671 2.853,7.673 -2.592,7.666C-3.45,7.665 -4.204,7.82 -4.168,8.872C-4.135,9.841 -3.396,9.958 -2.605,9.955C0.117,9.945 2.839,9.951 5.561,9.951M-8.46,-16.091L19.346,-16.091C19.136,-14.19 18.941,-12.36 18.73,-10.533C17.923,-3.506 17.101,3.519 16.307,10.547C16.183,11.648 15.708,12.106 14.551,12.098C8.426,12.056 2.3,12.06 -3.825,12.094C-4.931,12.1 -5.375,11.617 -5.492,10.594C-6.474,2.036 -7.47,-6.52 -8.455,-15.077C-8.49,-15.384 -8.46,-15.699 -8.46,-16.091" style="fill:white;fill-rule:nonzero;"/>
            </g>
        </g>
        <g transform="matrix(2,0,0,2,2632.5,11300.9)">
            <g transform="matrix(1,0,0,1,1060.07,671.126)">
                <path d="M0,4.234C-4.983,4.234 -9.967,4.194 -14.949,4.263C-16.236,4.28 -16.413,3.732 -16.217,2.704C-15.91,1.101 -14.685,-0.01 -12.956,-0.016C-4.304,-0.046 4.35,-0.046 13.002,-0.018C14.799,-0.012 16.074,1.156 16.321,2.792C16.468,3.765 16.289,4.276 15.085,4.26C10.058,4.197 5.028,4.234 0,4.234" style="fill:white;fill-rule:nonzero;"/>
            </g>
        </g>
        <g transform="matrix(2,0,0,2,2632.5,11300.9)">
            <g transform="matrix(0.169176,0.985586,0.985586,-0.169176,1058.81,663.924)">
                <path d="M4.026,-3.527C3.064,-3.582 2.821,-3.165 2.97,-2.353C3.344,-0.305 3.696,1.747 4.026,3.802C4.155,4.606 4.51,4.94 5.419,4.585L4.026,-3.527Z" style="fill:white;fill-rule:nonzero;"/>
            </g>
        </g>
        <g transform="matrix(2,0,0,2,2632.5,11300.9)">
            <g transform="matrix(1,0,0,1,1060.27,701.477)">
                <path d="M0,2.282C-2.722,2.282 -5.443,2.276 -8.166,2.286C-8.957,2.289 -9.695,2.173 -9.729,1.204C-9.765,0.151 -9.011,-0.004 -8.152,-0.003C-2.708,0.004 2.735,0.003 8.18,-0.005C8.997,-0.007 9.675,0.192 9.673,1.151C9.671,2.123 8.976,2.289 8.166,2.286C5.444,2.275 2.723,2.282 0,2.282" style="fill:rgb(160,160,160);fill-rule:nonzero;"/>
            </g>
        </g>
        <g transform="matrix(2,0,0,2,2632.5,11300.9)">
            <g transform="matrix(1,0,0,1,1061.17,689.755)">
                <path d="M0,0.138C0,2.399 -0.007,4.661 0.003,6.922C0.007,7.779 -0.184,8.529 -1.208,8.51C-2.15,8.493 -2.348,7.757 -2.349,6.971C-2.353,2.358 -2.351,-2.255 -2.346,-6.868C-2.346,-7.66 -2.14,-8.379 -1.189,-8.384C-0.151,-8.391 0.007,-7.629 0.003,-6.781C-0.006,-4.475 0,-2.168 0,0.138" style="fill:rgb(160,160,160);fill-rule:nonzero;"/>
            </g>
        </g>
        <g transform="matrix(2,0,0,2,2632.5,11300.9)">
            <g transform="matrix(1,0,0,1,1067.81,689.684)">
                <path d="M0,0.275C0.002,2.498 0.001,4.72 0.003,6.943C0.003,7.769 -0.098,8.583 -1.16,8.576C-2.219,8.568 -2.305,7.759 -2.304,6.93C-2.299,2.394 -2.299,-2.142 -2.307,-6.678C-2.309,-7.517 -2.199,-8.308 -1.146,-8.308C-0.075,-8.308 0.001,-7.487 0,-6.665C-0.004,-4.352 -0.002,-2.038 0,0.275" style="fill:rgb(160,160,160);fill-rule:nonzero;"/>
            </g>
        </g>
        <g transform="matrix(2,0,0,2,2632.5,11300.9)">
            <g transform="matrix(1,0,0,1,1054.71,689.812)">
                <path d="M0,0.011C0,2.279 -0.005,4.547 0.002,6.814C0.005,7.644 -0.088,8.452 -1.15,8.448C-2.219,8.444 -2.288,7.625 -2.287,6.801C-2.283,2.266 -2.282,-2.27 -2.289,-6.806C-2.29,-7.637 -2.202,-8.441 -1.137,-8.437C-0.069,-8.432 0.005,-7.618 0.003,-6.792C-0.005,-4.525 0,-2.257 0,0.011" style="fill:rgb(160,160,160);fill-rule:nonzero;"/>
            </g>
        </g>
    </g>
</svg>
